<svg width="112" height="112" viewBox="0 0 112 112" fill="none" xmlns="http://www.w3.org/2000/svg">
<g id="icon">
<path id="blob" opacity="0.1" d="M80.0337 12.3093C87.8141 18.7431 94.319 26.1325 94.9568 34.0314C95.5307 41.9303 90.2375 50.2752 88.1967 60.7221C86.2197 71.1691 87.4314 83.7182 82.3295 92.063C77.1638 100.472 65.6846 104.676 54.7154 103.911C43.8101 103.083 33.4788 97.2228 23.3387 90.4068C13.2624 83.6545 3.44126 76.0104 0.762757 66.3278C-1.85197 56.709 2.67597 45.0517 7.9692 35.2417C13.2624 25.3681 19.3847 17.278 27.1651 10.9079C35.0093 4.47411 44.5754 -0.303469 53.8864 0.0150366C63.1974 0.397243 72.2533 5.87553 80.0337 12.3093Z" fill="#00C4FF"/>
<g id="shape">
<path id="Vector" d="M71.6625 12H72.6547C73.7359 12.1531 74.7547 12.75 75.3609 13.6656C76.1922 14.8625 76.2344 16.5422 75.4703 17.7828C74.8016 18.9219 73.5078 19.6516 72.1891 19.6406C71.6109 19.6531 71.0578 19.4703 70.5172 19.2891C68.1281 21.6781 65.7313 24.0609 63.3406 26.4484C68.5656 24.1734 74.3141 23.0938 80.0078 23.4016C87.2953 23.7531 94.4453 26.3578 100.269 30.75C100.877 30.1484 101.484 29.5453 102.084 28.9344C102.409 28.6156 102.786 28.2516 103.28 28.2828C103.727 28.2641 104.081 28.5719 104.38 28.8656C105.858 30.3578 107.347 31.8422 108.834 33.325C109.28 33.7828 109.836 34.1984 110 34.85V35.1094C109.891 35.7781 109.319 36.1984 108.875 36.6547C107.442 38.0828 106.008 39.5094 104.584 40.95C104.222 41.3047 103.831 41.7516 103.275 41.7359C102.808 41.7609 102.441 41.4312 102.13 41.1281C100.412 39.3984 98.6687 37.6969 96.9469 35.9734C96.4734 35.5484 96.35 34.7641 96.7797 34.2672C97.3016 33.6562 97.9281 33.1453 98.4859 32.5688C93.8516 29.1531 88.3484 26.9203 82.6359 26.1797C74.2969 25.0422 65.5812 27.1438 58.6641 31.9344C59.375 33.3406 59.6375 34.9906 59.2406 36.5281C58.7391 38.6734 57.0422 40.4797 54.9344 41.1203C53.2812 41.6594 51.4469 41.4328 49.9141 40.6391C46.3812 45.7687 44.2719 51.8688 43.9219 58.0906C43.4297 66.0203 45.8266 74.0766 50.55 80.4625C51.1328 79.9141 51.6531 79.2984 52.2672 78.7859C52.7672 78.3656 53.5484 78.4812 53.9766 78.9484C55.7 80.6687 57.4016 82.4109 59.1281 84.1281C59.4328 84.4406 59.7625 84.8094 59.7344 85.2797C59.7516 85.7484 59.4156 86.1125 59.1109 86.425C57.6453 87.8766 56.1859 89.3359 54.7266 90.7937C54.2656 91.2469 53.8453 91.7953 53.2047 92H52.8C52.1391 91.7875 51.7172 91.2172 51.2406 90.7531C49.9672 89.4797 48.6953 88.2031 47.4203 86.9328C47.0875 86.5953 46.7188 86.2859 46.4531 85.8906C46.1562 85.4375 46.2437 84.7969 46.6234 84.4172C47.3109 83.6813 48.0484 82.9922 48.75 82.2688C45.5406 77.9906 43.2672 73.0125 42.1641 67.7766C40.5594 60.3016 41.3891 52.3391 44.4672 45.3422C42.075 47.7281 39.6781 50.1109 37.2906 52.5016C37.5969 53.2922 37.7672 54.1609 37.5703 55.0016C37.2859 56.3844 36.1797 57.5531 34.8109 57.9047C33.4984 58.2672 32.0125 57.8609 31.0734 56.875C30.4875 56.2969 30.1484 55.5156 30 54.7156V53.7797C30.1688 52.1375 31.4922 50.6953 33.1266 50.4281C33.9344 50.2516 34.7594 50.4422 35.5172 50.7297C39.5734 46.6891 43.6219 42.6422 47.6703 38.5953C46.5547 36.8844 46.2625 34.6547 47.0109 32.7406C47.8625 30.4172 50.1641 28.7188 52.6391 28.6078C54.0359 28.5047 55.4203 28.9359 56.6 29.6688C60.6438 25.6203 64.6891 21.5719 68.7297 17.5188C68.4156 16.7109 68.2328 15.8203 68.4547 14.9625C68.775 13.4281 70.125 12.2313 71.6625 12ZM71.7672 14.5703C71.1656 14.7656 70.7641 15.4281 70.8828 16.0516C70.9844 16.7281 71.6672 17.2484 72.3484 17.15C73.1453 17.0859 73.7328 16.1953 73.4641 15.4359C73.2688 14.7406 72.4453 14.3188 71.7672 14.5703ZM52.2625 31.1734C50.6016 31.4781 49.2594 32.9703 49.1219 34.6516C48.9344 36.3531 50.0094 38.0844 51.6156 38.675C52.9203 39.1906 54.4922 38.9234 55.5516 38.0031C56.7406 37.0187 57.2328 35.2969 56.7453 33.8328C56.1953 31.9828 54.1531 30.7594 52.2625 31.1734ZM99.5687 34.9938C100.808 36.2297 102.044 37.4688 103.283 38.7062C104.519 37.4688 105.756 36.2313 106.994 34.9938C105.756 33.7563 104.52 32.5172 103.281 31.2812C102.044 32.5188 100.805 33.7563 99.5687 34.9938ZM33.3203 52.9719C32.4359 53.3 32.3641 54.6297 33.1062 55.15C33.7734 55.7219 34.9922 55.3781 35.1297 54.4672C35.3984 53.4688 34.25 52.525 33.3203 52.9719ZM53.0203 81.5312C51.7812 82.7672 50.5453 84.0062 49.3062 85.2438C50.5437 86.4813 51.7859 87.7141 53.0219 88.9547C54.2578 87.7188 55.4953 86.4813 56.7313 85.2438C55.4953 84.0062 54.2563 82.7688 53.0203 81.5312Z" fill="#00C4FF"/>
<path id="Vector_2" d="M61.4172 39.1999C61.7969 38.7827 62.4094 38.6827 62.9172 38.9202C73.6344 43.1999 84.3547 47.4764 95.0656 51.7702C95.7562 51.9796 95.9703 52.7108 96.1937 53.3139C97.7719 57.4608 99.3812 61.5952 100.961 65.7421C101.034 66.0139 101.244 66.1999 101.497 66.3077C103.97 67.528 106.428 68.778 108.902 69.9952C109.386 70.2108 109.859 70.5343 110 71.0796V71.5514C109.769 72.1952 109.212 72.6171 108.752 73.0905C102.605 79.2327 96.4609 85.3796 90.3172 91.5233C90.089 91.7468 89.8031 91.8968 89.5031 91.9999H89.0594C88.35 91.803 88.0875 91.0796 87.7937 90.4874C86.5672 88.0202 85.3328 85.5561 84.0969 83.0921C79.6078 81.378 75.1234 79.6468 70.6359 77.9233C69.8594 77.6936 69.689 76.828 69.4125 76.1764C65.4015 66.1311 61.3844 56.0874 57.3687 46.0421C57.1562 45.4811 56.8562 44.9389 56.7875 44.3358C56.764 43.8561 57.1172 43.4921 57.4265 43.1764C58.7687 41.8624 60.0797 40.5171 61.4172 39.1999ZM61.9562 42.1874C67.3281 47.5577 72.7 52.9311 78.0719 58.3014C79.7 57.1764 81.7703 56.7014 83.7172 57.0999C85.8265 57.4905 87.7156 58.8718 88.7453 60.7514C89.8187 62.6561 89.9609 65.0499 89.1312 67.0718C88.3984 68.9061 86.8906 70.4108 85.0547 71.1374C83.0719 71.9452 80.7359 71.8218 78.8531 70.8014C76.9328 69.7858 75.5094 67.8796 75.1047 65.7421C74.6984 63.7889 75.1703 61.7046 76.3015 60.0718C70.9328 54.6968 65.5625 49.3233 60.1875 43.9561C59.9562 44.1843 59.7265 44.4171 59.4937 44.6436C63.639 55.0093 67.7906 65.3733 71.9297 75.7405C76.1844 77.3874 80.4469 79.0108 84.7031 80.6546C89.3578 76.0061 94.0047 71.3499 98.6562 66.6983C97.0172 62.4421 95.3859 58.1811 93.7422 53.9249C83.3781 49.7811 73.014 45.6358 62.65 41.4905C62.4219 41.7264 62.1859 41.9546 61.9562 42.1874ZM81.1531 59.5968C80.2609 59.8155 79.4328 60.2921 78.7984 60.9561C77.2125 62.5483 77.0031 65.2686 78.3234 67.0858C79.5562 68.9264 82.1234 69.6827 84.1578 68.7968C86.3969 67.928 87.689 65.2468 86.964 62.9514C86.3172 60.5233 83.5844 58.9358 81.1531 59.5968ZM100.373 68.5561C95.7656 73.1686 91.1562 77.7796 86.5437 82.3874C87.5859 84.4702 88.6265 86.5546 89.6703 88.6374C95.3219 82.9874 100.975 77.3358 106.623 71.6811C104.539 70.6405 102.459 69.5936 100.373 68.5561Z" fill="#00C4FF"/>
</g>
</g>
</svg>
