<svg width="112" height="112" viewBox="0 0 112 112" fill="none" xmlns="http://www.w3.org/2000/svg">
<path opacity="0.1" d="M80.0337 16.3093C87.8141 22.7431 94.319 30.1325 94.9568 38.0314C95.5307 45.9303 90.2375 54.2752 88.1967 64.7221C86.2197 75.1691 87.4314 87.7182 82.3295 96.063C77.1638 104.472 65.6846 108.676 54.7154 107.911C43.8101 107.083 33.4788 101.223 23.3387 94.4068C13.2624 87.6545 3.44126 80.0104 0.762757 70.3278C-1.85197 60.709 2.67597 49.0517 7.9692 39.2417C13.2624 29.3681 19.3847 21.278 27.1651 14.9079C35.0093 8.47411 44.5754 3.69653 53.8864 4.01504C63.1974 4.39724 72.2533 9.87553 80.0337 16.3093Z" fill="#E6492D"/>
<g clip-path="url(#clip0_306_5033)">
<path d="M30.9469 16H37.6094C37.9922 16.1453 38.4297 16.3641 38.5219 16.8062C38.6656 17.5688 38.5781 18.3531 38.5922 19.125C40.5719 19.1234 42.5516 19.1297 44.5312 19.1172C45.0016 19.1328 45.5578 19.0953 45.9109 19.4688C46.3938 19.9281 46.3516 20.7969 45.8219 21.2031C45.4641 21.4984 44.9703 21.4578 44.5359 21.4766C42.5547 21.4641 40.5734 21.4703 38.5922 21.4688C38.5844 22.2016 38.6469 22.9406 38.5484 23.6688C38.4828 24.1125 38.1078 24.4844 37.6641 24.5484C36.9375 24.6469 36.2 24.5844 35.4688 24.5922C35.4688 33.9594 35.4688 43.3281 35.4688 52.6953C36.0453 52.7469 36.7281 52.6141 37.2016 53.0281C37.6391 53.4203 37.5719 54.0609 37.5859 54.5922C37.5625 55.7406 37.6047 56.8906 37.5703 58.0391C37.5719 58.4906 37.3578 58.9719 36.9203 59.1531C36.4594 59.3281 35.9516 59.2719 35.4688 59.3047C35.4688 68.6719 35.4688 78.0406 35.4688 87.4078C36.2016 87.4156 36.9406 87.3531 37.6688 87.4516C38.1156 87.5156 38.4875 87.8938 38.55 88.3406C38.6453 89.0656 38.5844 89.8016 38.5922 90.5312C47.9594 90.5312 57.3281 90.5312 66.6953 90.5312C66.7469 89.9563 66.6156 89.2797 67.0219 88.8063C67.3719 88.3953 67.9578 88.4281 68.4469 88.4188C69.6453 88.4391 70.8453 88.4047 72.0437 88.4328C72.4937 88.4266 72.9734 88.6422 73.1547 89.0766C73.3281 89.5391 73.2734 90.0469 73.3047 90.5312C78.7656 90.5281 84.2266 90.5359 89.6875 90.5266C90.1094 90.5359 90.5984 90.5422 90.9062 90.8797C91.3531 91.3141 91.3469 92.1031 90.8984 92.5328C90.5922 92.8609 90.1125 92.8672 89.6969 92.8797C84.2328 92.8703 78.7687 92.8766 73.3047 92.875C73.2531 93.45 73.3844 94.1297 72.9734 94.6031C72.625 95 72.0547 94.9891 71.5719 94.9969C70.4703 94.9875 69.3688 94.9953 68.2687 94.9938C67.8 94.9953 67.2516 94.9391 66.9594 94.5219C66.6312 94.0422 66.7422 93.4219 66.6953 92.875C57.3281 92.875 47.9594 92.875 38.5922 92.875C38.5781 93.6453 38.6656 94.4266 38.5234 95.1875C38.4328 95.6188 38.0094 95.8375 37.6406 96H30.9906C30.5156 95.8734 30.1531 95.5156 30 95.0516V88.3891C30.1453 88.0031 30.3672 87.5672 30.8109 87.4766C31.5734 87.3344 32.3547 87.4219 33.125 87.4078C33.125 78.0406 33.125 68.6719 33.125 59.3047C32.5531 59.2531 31.8828 59.3828 31.4078 58.9844C30.9547 58.5953 31.0219 57.9422 31.0078 57.4047C31.0312 56.2562 30.9891 55.1062 31.0234 53.9578C31.0219 53.5094 31.2313 53.0312 31.6625 52.85C32.1266 52.6703 32.6375 52.7266 33.125 52.6953C33.125 43.3281 33.125 33.9594 33.125 24.5922C32.3531 24.5781 31.5703 24.6656 30.8062 24.5219C30.3781 24.4297 30.1641 24.0094 30 23.6469V16.9797C30.1312 16.5094 30.4875 16.1531 30.9469 16ZM32.3438 18.3438C32.3438 19.6453 32.3438 20.9484 32.3438 22.25C33.6453 22.25 34.9484 22.25 36.25 22.25C36.25 20.9484 36.25 19.6453 36.25 18.3438C34.9484 18.3438 33.6453 18.3438 32.3438 18.3438ZM33.3594 55.0625C33.3594 55.6875 33.3594 56.3125 33.3594 56.9375C33.9844 56.9375 34.6094 56.9375 35.2344 56.9375C35.2344 56.3125 35.2344 55.6875 35.2344 55.0625C34.6094 55.0625 33.9844 55.0625 33.3594 55.0625ZM32.3438 89.75C32.3438 91.0516 32.3438 92.3547 32.3438 93.6562C33.6453 93.6562 34.9484 93.6562 36.25 93.6562C36.25 92.3547 36.25 91.0516 36.25 89.75C34.9484 89.75 33.6453 89.75 32.3438 89.75ZM69.0625 90.7703C69.0625 91.3953 69.0625 92.0203 69.0625 92.6469C69.6875 92.6453 70.3125 92.6453 70.9375 92.6469C70.9375 92.0203 70.9375 91.3953 70.9375 90.7703C70.3125 90.7703 69.6875 90.7703 69.0625 90.7703Z" fill="#E6492D"/>
<path d="M102.352 16H109.014C109.488 16.1281 109.847 16.4875 110 16.9516V23.6016C109.856 23.9891 109.636 24.4297 109.191 24.5219C108.428 24.6656 107.645 24.5781 106.875 24.5922C106.875 33.9594 106.875 43.3281 106.875 52.6953C107.566 52.7266 108.541 52.6031 108.864 53.3922C109.116 54.3422 108.933 55.3469 108.986 56.3203C108.941 57.1156 109.128 57.9656 108.809 58.7188C108.42 59.4031 107.534 59.2625 106.875 59.3047C106.875 68.6719 106.875 78.0406 106.875 87.4078C107.648 87.4219 108.433 87.3328 109.198 87.4781C109.625 87.5719 109.838 87.9938 110 88.3578V95.0031C109.877 95.4828 109.516 95.8469 109.048 96H102.394C102.009 95.8547 101.572 95.6375 101.478 95.1953C101.333 94.4313 101.422 93.6469 101.408 92.875C99.5281 92.8688 97.6484 92.8844 95.7688 92.875C95.2766 92.8922 94.7297 92.7188 94.5109 92.2391C94.1203 91.5516 94.6359 90.5687 95.4422 90.5547C97.4297 90.4906 99.4203 90.5531 101.408 90.5312C101.416 89.8 101.353 89.0641 101.45 88.3359C101.511 87.8875 101.891 87.5125 102.339 87.45C103.066 87.3547 103.8 87.4156 104.531 87.4078C104.531 78.0406 104.531 68.6719 104.531 59.3047C103.87 59.2609 102.984 59.4047 102.597 58.7203C102.275 57.9625 102.467 57.1047 102.42 56.3047C102.472 55.3375 102.292 54.3391 102.539 53.3938C102.864 52.6031 103.839 52.7266 104.531 52.6953C104.531 43.3281 104.531 33.9594 104.531 24.5922C103.798 24.5844 103.059 24.6469 102.331 24.5484C101.886 24.4844 101.513 24.1062 101.45 23.6609C101.355 22.9344 101.414 22.1984 101.408 21.4688C92.0406 21.4688 82.6719 21.4688 73.3047 21.4688C73.2578 22.0156 73.3672 22.6344 73.0406 23.1156C72.7484 23.5312 72.2016 23.5906 71.7344 23.5875C70.5828 23.5859 69.4313 23.5859 68.2797 23.5875C67.8078 23.5891 67.2547 23.5359 66.9578 23.1156C66.6313 22.6359 66.7422 22.0172 66.6953 21.4688C61.4938 21.4703 56.2906 21.4641 51.0875 21.4734C50.6703 21.4656 50.1922 21.45 49.8859 21.1203C49.3766 20.6375 49.4609 19.7016 50.0609 19.3281C50.5094 19.0547 51.0625 19.1391 51.5609 19.1172C56.6063 19.1344 61.6516 19.1203 66.6969 19.125C66.7422 18.5797 66.6313 17.9641 66.9531 17.4828C67.2094 17.1016 67.6969 17.0172 68.125 17.0187C69.2719 17.0094 70.4188 17.0281 71.5656 17.0141C72.0531 17.0219 72.6359 16.9937 72.9828 17.4047C73.3844 17.8797 73.2516 18.5516 73.3047 19.125C82.6719 19.125 92.0406 19.125 101.408 19.125C101.422 18.3531 101.334 17.5719 101.475 16.8094C101.566 16.3797 101.988 16.1641 102.352 16ZM103.75 18.3438C103.75 19.6453 103.75 20.9484 103.75 22.25C105.052 22.25 106.355 22.25 107.656 22.25C107.656 20.9484 107.656 19.6453 107.656 18.3438C106.355 18.3438 105.052 18.3438 103.75 18.3438ZM69.0625 19.3641C69.0625 19.9891 69.0625 20.6141 69.0625 21.2406C69.6875 21.2391 70.3125 21.2391 70.9375 21.2406C70.9375 20.6141 70.9375 19.9891 70.9375 19.3641C70.3125 19.3641 69.6875 19.3641 69.0625 19.3641ZM104.766 55.0625C104.766 55.6875 104.766 56.3125 104.766 56.9375C105.391 56.9375 106.016 56.9375 106.641 56.9375C106.639 56.3125 106.639 55.6875 106.641 55.0625C106.016 55.0625 105.391 55.0625 104.766 55.0625ZM103.75 89.75C103.75 91.0516 103.75 92.3547 103.75 93.6562C105.052 93.6562 106.355 93.6562 107.656 93.6562C107.656 92.3547 107.656 91.0516 107.656 89.75C106.355 89.75 105.052 89.75 103.75 89.75Z" fill="#E6492D"/>
<path d="M59.7281 30.7046C60.1312 29.4734 61.3547 28.575 62.6562 28.5968C67.5 28.589 72.3437 28.5968 77.1875 28.5921C78.0718 28.5671 78.9719 28.8953 79.5765 29.5515C80.1859 30.1781 80.3875 31.0546 80.6781 31.8515C86.2765 47.8125 91.8734 63.775 97.4765 79.7343C97.7031 80.439 98.0953 81.1593 97.914 81.9218C97.7218 82.8093 96.8437 83.4562 95.9406 83.4062C91.5109 83.4062 87.0812 83.4078 82.6531 83.4047C81.7453 83.414 80.8437 83.0187 80.2609 82.3203C79.7937 81.775 79.5953 81.0703 79.3469 80.4109C78.3484 77.6781 77.3375 74.95 76.3359 72.2187C72.1203 72.2187 67.9047 72.2187 63.689 72.2187C62.5609 75.25 61.439 78.2828 60.3078 81.3125C59.8843 82.5468 58.65 83.4406 57.3375 83.4047C52.9125 83.4093 48.489 83.4062 44.0656 83.4062C43.3593 83.4328 42.65 83.075 42.3 82.4531C41.9734 81.9281 41.9765 81.2656 42.1859 80.7C48.0375 64.0359 53.875 47.3671 59.7281 30.7046ZM61.8812 31.6343C56.1031 48.1109 50.3218 64.5859 44.5437 81.0625C46.1531 81.0625 47.7609 81.0609 49.3687 81.0672C49.7109 81.0468 50.1687 81.1015 50.3672 80.7515C50.8125 79.939 50.975 79.0031 51.4062 78.1843C51.6875 77.6547 52.4218 77.464 52.939 77.7562C53.4125 77.9921 53.675 78.5812 53.5109 79.0906C53.3203 79.764 53.0312 80.4047 52.7968 81.0625C54.3172 81.05 55.8359 81.0843 57.3547 81.0515C57.8187 81.0968 58.0687 80.6625 58.1937 80.2859C59.1875 77.5953 60.1906 74.9078 61.189 72.2187C59.4875 72.2187 57.7859 72.2187 56.0843 72.2187C55.8125 72.9031 55.625 73.625 55.2734 74.2734C54.864 74.989 53.7062 74.9531 53.3125 74.2406C52.9047 73.5843 53.3781 72.8531 53.5828 72.2156C53.8422 71.5953 53.9953 70.9265 54.3437 70.3468C54.6125 69.9156 55.1625 69.8656 55.6218 69.8718C62.7625 69.8828 69.9031 69.8672 77.0437 69.8781C77.5859 69.8422 78.1015 70.175 78.2656 70.6984C79.4734 73.9281 80.6468 77.1718 81.8453 80.4047C81.9578 80.7562 82.2328 81.0906 82.6406 81.0531C84.3765 81.0812 86.1156 81.0515 87.8531 81.0625C84.1515 70.5109 80.4531 59.9578 76.7468 49.4093C76.5937 48.9984 76.539 48.5046 76.825 48.1359C77.2312 47.5109 78.2562 47.4718 78.6906 48.0843C78.9937 48.55 79.1156 49.1046 79.3093 49.6203C82.975 60.1015 86.65 70.5812 90.3187 81.0625C92.0312 81.0625 93.7422 81.0625 95.4547 81.0625C89.6781 64.5859 83.8953 48.1093 78.1187 31.6328C78.0109 31.2843 77.7609 30.9171 77.3484 30.95C75.8172 30.9125 74.2859 30.9515 72.7547 30.9375C74.1828 35.0281 75.6343 39.1125 77.05 43.2078C77.3406 43.8875 76.8375 44.7312 76.1 44.7906C75.5015 44.8828 74.9578 44.4343 74.8078 43.8734C73.3859 39.8218 71.9656 35.7718 70.5453 31.7218C70.4218 31.3421 70.1609 30.9062 69.6984 30.9468C67.3484 30.9328 64.9968 30.925 62.6468 30.95C62.2343 30.9171 61.989 31.2875 61.8812 31.6343Z" fill="#E6492D"/>
<path d="M65.7047 38.1314C66.3782 37.7954 67.1953 38.2579 67.361 38.9657C70.1328 46.8642 72.9 54.7642 75.6735 62.6626C75.836 63.1032 75.8516 63.6454 75.5094 64.0079C75.2016 64.3954 74.6719 64.4126 74.2203 64.411C68.7985 64.3985 63.375 64.4126 57.9532 64.4048C57.275 64.4642 56.5938 63.8939 56.661 63.1892C56.7469 62.5939 57.0063 62.0423 57.1938 61.4751C59.8047 53.9845 62.4172 46.4923 65.025 39.0001C65.1469 38.6485 65.3453 38.2845 65.7047 38.1314ZM59.4719 62.0626C61.1782 62.0626 62.886 62.0626 64.5922 62.0626C65.9844 58.0642 67.3782 54.0657 68.7703 50.0657C67.9141 47.6267 67.0594 45.186 66.2032 42.747C63.9578 49.186 61.7141 55.6235 59.4719 62.0626ZM67.0735 62.0626C69.0422 62.0626 71.0094 62.0626 72.9782 62.0626C71.9907 59.2485 71.0047 56.4345 70.0157 53.622C69.0328 56.4345 68.0547 59.2485 67.0735 62.0626Z" fill="#E6492D"/>
</g>
<defs>
<clipPath id="clip0_306_5033">
<rect width="80" height="80" fill="white" transform="translate(30 16)"/>
</clipPath>
</defs>
</svg>
