<svg width="112" height="112" viewBox="0 0 112 112" fill="none" xmlns="http://www.w3.org/2000/svg">
<path opacity="0.1" d="M81.0337 16.3093C88.8141 22.7431 95.319 30.1325 95.9568 38.0314C96.5307 45.9303 91.2375 54.2752 89.1967 64.7221C87.2197 75.1691 88.4314 87.7182 83.3295 96.063C78.1638 104.472 66.6846 108.676 55.7154 107.911C44.8101 107.083 34.4788 101.223 24.3387 94.4068C14.2624 87.6545 4.44126 80.0104 1.76276 70.3278C-0.851972 60.709 3.67597 49.0517 8.9692 39.2417C14.2624 29.3681 20.3847 21.278 28.1651 14.9079C36.0093 8.47411 45.5754 3.69653 54.8864 4.01504C64.1974 4.39724 73.2533 9.87553 81.0337 16.3093Z" fill="#FFB648"/>
<g clip-path="url(#clip0_306_5050)">
<path d="M32.4344 23.517C33.5922 22.0811 35.4 21.2014 37.2453 21.1826C38.7063 21.1655 40.1672 21.1858 41.6266 21.1748C42.2953 21.1748 42.9797 21.142 43.6266 21.3436C44.9812 21.742 46.0469 22.9748 46.2391 24.3748C46.3219 25.0311 46.2828 25.6936 46.2859 26.353C65.4625 26.3545 84.6391 26.3561 103.816 26.3514C104.947 26.3217 106.109 26.3998 107.155 26.8717C109.381 27.803 110.933 30.0905 111 32.4998V84.8311C110.859 87.217 109.292 89.4483 107.069 90.3389C105.602 90.9889 103.967 90.7951 102.411 90.8233C101.278 90.8014 100.144 90.8686 99.0156 90.7873C97.2531 90.6108 95.7719 89.0248 95.725 87.2514C95.6953 84.992 95.7234 82.7295 95.7125 80.4701C90.9078 80.4655 86.1031 80.4733 81.3 80.4655C80.5219 80.5436 79.8313 79.7483 80.0688 78.9905C80.2016 78.442 80.7562 78.0905 81.3078 78.128C88.7047 78.1201 96.1016 78.128 103.5 78.1233C104.523 78.1155 105.573 78.0905 106.558 78.4201C107.325 78.6498 108.016 79.067 108.659 79.5389C108.65 63.9295 108.662 48.3201 108.653 32.7123C108.713 30.553 106.766 28.6233 104.609 28.6998C85.1688 28.6967 65.7281 28.6983 46.2875 28.6983C46.2844 41.2389 46.2891 53.7811 46.2844 66.3217C46.3406 68.2123 44.7672 69.9701 42.8734 70.0905C40.9172 70.167 38.9547 70.0639 36.9969 70.1358C34.9297 70.2608 33.2062 72.2248 33.3516 74.292C33.3891 76.3311 35.2141 78.1201 37.2547 78.1186C49.8047 78.1326 62.3563 78.1201 74.9062 78.1248C75.5719 78.1436 76.2484 78.0545 76.9031 78.1983C77.6562 78.4264 77.9313 79.4748 77.4031 80.0514C76.9875 80.5717 76.2609 80.4592 75.6766 80.4733C62.9203 80.4608 50.1625 80.4733 37.4062 80.467C35.6266 80.4826 33.8594 79.717 32.6656 78.3951C31.675 77.3264 31.1047 75.9076 31 74.4608V40.3139C31.1094 39.6795 31.7297 39.178 32.3797 39.3186C33.0203 39.4092 33.4078 40.0655 33.3453 40.6795C33.3406 50.1795 33.3484 59.6811 33.3406 69.1811C34.0172 68.6826 34.7547 68.2561 35.5672 68.0295C36.6016 67.7045 37.6969 67.7748 38.7656 67.7701C38.7781 66.4451 38.7469 65.1201 38.7734 63.7951C38.7469 63.2123 39.2047 62.6655 39.7875 62.6061C40.4234 62.5045 41.075 63.0233 41.0938 63.6748C41.1406 65.0373 41.0922 66.403 41.1109 67.7686C41.7312 67.7592 42.3672 67.8342 42.9781 67.6905C43.6203 67.4998 43.9891 66.8201 43.9422 66.1733C43.9406 52.4655 43.9453 38.7561 43.9406 25.0483C43.9812 24.378 43.525 23.6967 42.8516 23.5686C42.275 23.478 41.6891 23.5248 41.1094 23.5233C41.0953 24.8701 41.1344 26.217 41.0969 27.5623C41.1031 28.1905 40.5234 28.7311 39.9 28.6951C39.3047 28.6889 38.7719 28.167 38.7797 27.5655C38.7391 26.2186 38.7812 24.8701 38.7656 23.5217C37.8641 23.5326 36.9313 23.4326 36.0609 23.7358C34.5734 24.2248 33.4437 25.6639 33.3625 27.2342C33.3109 30.0592 33.3672 32.8858 33.3375 35.7092C33.3906 36.3873 32.7797 37.0123 32.0984 36.9467C31.5422 36.9358 31.1266 36.4717 31 35.9592V27.1061C31.1203 25.8045 31.5938 24.5264 32.4344 23.517ZM98.0578 80.4686C98.0578 82.6295 98.0531 84.7889 98.0578 86.9498C98.0156 87.5951 98.4375 88.2436 99.0703 88.4155C99.6672 88.5373 100.284 88.4623 100.891 88.4764C100.9 87.1295 100.873 85.7826 100.9 84.4358C100.895 83.8701 101.369 83.3639 101.927 83.3108C102.58 83.2155 103.231 83.7717 103.223 84.4358C103.253 85.7826 103.223 87.1295 103.234 88.478C104.095 88.4608 104.983 88.5623 105.819 88.3014C107.117 87.9139 108.177 86.8217 108.516 85.5076C108.878 84.2076 108.512 82.7373 107.586 81.7561C106.831 80.9233 105.713 80.4545 104.591 80.4686C102.412 80.467 100.234 80.4686 98.0578 80.4686Z" fill="#FFB648"/>
<path d="M51.9969 34.2249C53.1375 33.9483 54.4016 34.2374 55.2953 35.0014C56.3062 35.8405 56.8234 37.2311 56.5812 38.5249C56.3422 39.9999 55.1359 41.2608 53.6687 41.553C52.2641 41.8749 50.7156 41.2842 49.8687 40.1249C49.0797 39.092 48.9016 37.6374 49.4078 36.442C49.8531 35.3467 50.8484 34.5014 51.9969 34.2249ZM52.5906 36.4967C52.0078 36.6108 51.5312 37.1295 51.4766 37.7217C51.3719 38.4639 51.9594 39.2061 52.7031 39.2811C53.5187 39.4124 54.3234 38.692 54.2937 37.8686C54.3141 37.0077 53.4266 36.292 52.5906 36.4967Z" fill="#FFB648"/>
<path d="M80.4422 34.2326C82.2156 33.7498 84.2172 34.7904 84.8531 36.5107C85.3281 37.6998 85.1344 39.1264 84.3516 40.142C83.5906 41.1748 82.2688 41.7545 80.9938 41.6186C79.7844 41.5139 78.6594 40.7701 78.0735 39.7092C77.5156 38.7311 77.4438 37.4998 77.8735 36.4607C78.3141 35.367 79.2985 34.5139 80.4422 34.2326ZM80.8891 36.5451C79.8938 36.8436 79.6078 38.2889 80.4203 38.9404C81.161 39.6545 82.5438 39.2076 82.7297 38.1982C83.0219 37.167 81.8828 36.1451 80.8891 36.5451Z" fill="#FFB648"/>
<path d="M60.1141 36.8374C60.3859 36.6983 60.7016 36.714 60.9984 36.7046C65.1625 36.7155 69.3266 36.703 73.4906 36.7108C74.15 36.6515 74.7766 37.2124 74.7578 37.8796C74.7766 38.5437 74.1578 39.0983 73.5047 39.0499C69.2313 39.0515 64.9563 39.0562 60.6828 39.0483C60.1453 39.0687 59.6281 38.6874 59.5094 38.1608C59.3734 37.6483 59.6391 37.0687 60.1141 36.8374Z" fill="#FFB648"/>
<path d="M81.0641 44.5123C81.7797 44.3029 82.5656 44.9248 82.5188 45.6701C82.5266 49.7951 81.3234 53.9107 79.0969 57.3826C76.6563 61.2232 72.9906 64.2717 68.7625 65.9592C66.1984 66.9888 63.4344 67.5232 60.6719 67.517C59.9234 67.567 59.3 66.7779 59.5125 66.0607C59.65 65.467 60.2641 65.1248 60.8469 65.1748C65.3438 65.1498 69.8 63.4873 73.2234 60.5779C77.4859 57.0185 80.1125 51.5717 80.1688 46.0123C80.1063 45.3842 80.3906 44.6576 81.0641 44.5123Z" fill="#FFB648"/>
<path d="M59.9578 47.289C60.4031 46.9452 61.0828 47.0077 61.4719 47.4093C62.0703 47.9827 62.6422 48.5827 63.2328 49.1655C63.8437 48.5765 64.4187 47.9499 65.0422 47.3733C65.4937 46.9218 66.3141 46.978 66.7125 47.4733C67.0922 47.9015 67.0844 48.6061 66.6828 49.0171C66.1078 49.639 65.4859 50.2155 64.8937 50.8218C65.4422 51.378 66.0031 51.9218 66.55 52.4796C66.8219 52.7436 67.0344 53.103 66.9891 53.4983C66.9594 54.139 66.3266 54.6624 65.6906 54.5733C65.2937 54.5452 65 54.2499 64.7344 53.9858C64.2375 53.4796 63.7375 52.9796 63.2344 52.4811C62.7187 52.9936 62.2062 53.5108 61.6937 54.0265C61.4203 54.2999 61.0984 54.5858 60.6859 54.5796C60.0266 54.6233 59.4266 54.0155 59.4766 53.3561C59.4734 52.9515 59.7547 52.6358 60.0266 52.3702C60.5453 51.8561 61.0641 51.3421 61.5781 50.8233C60.9766 50.1968 60.3328 49.6108 59.7469 48.9718C59.3078 48.4874 59.4234 47.6546 59.9578 47.289Z" fill="#FFB648"/>
<path d="M92.1719 47.195C92.5953 47.045 93.0531 47.0606 93.4969 47.0591C95.0594 47.07 96.6219 47.0544 98.1844 47.0638C99.1156 47.0388 100.014 47.6106 100.408 48.4497C100.775 49.1919 100.612 50.045 100.645 50.8419C100.614 51.6294 100.77 52.4747 100.402 53.206C100.009 54.0325 99.1234 54.5966 98.2047 54.581C96.6359 54.5919 95.0687 54.5747 93.5 54.5872C93.039 54.581 92.5594 54.6044 92.1234 54.431C91.2359 54.1013 90.5656 53.2231 90.5453 52.27C90.5265 51.32 90.5312 50.3685 90.5422 49.4185C90.5453 48.4294 91.2484 47.52 92.1719 47.195ZM92.8828 49.4106C92.8781 50.3528 92.8765 51.2935 92.8844 52.2356C94.689 52.2419 96.4922 52.2419 98.2969 52.2356C98.3062 51.2935 98.3015 50.3528 98.3 49.4106C96.4937 49.4028 94.6875 49.4028 92.8828 49.4106Z" fill="#FFB648"/>
<path d="M91.5063 57.442C95.8141 57.3795 100.127 57.4357 104.438 57.4154C105.045 57.3451 105.694 57.7326 105.797 58.3607C105.963 59.0717 105.333 59.8076 104.605 59.7545C100.325 59.7639 96.0438 59.7623 91.7625 59.7561C91.2016 59.7873 90.6578 59.3748 90.5609 58.8186C90.4188 58.2014 90.875 57.5201 91.5063 57.442Z" fill="#FFB648"/>
<path d="M52.4531 62.6188C54.5266 62.3235 56.5781 64.0625 56.6313 66.1531C56.7938 68.1735 55.0594 70.0781 53.0344 70.1094C51.6859 70.1797 50.3422 69.4453 49.6578 68.286C48.9797 67.1813 48.9453 65.7203 49.5656 64.5844C50.1328 63.511 51.2453 62.7469 52.4531 62.6188ZM52.4672 65.0016C51.4844 65.2578 51.1266 66.6391 51.8656 67.3375C52.5578 68.1203 53.9922 67.7594 54.2391 66.7453C54.5875 65.7235 53.4828 64.6375 52.4672 65.0016Z" fill="#FFB648"/>
<path d="M80.5688 62.9013C80.9766 62.5075 81.6828 62.4904 82.1031 62.8763C82.7406 63.4575 83.3235 64.0966 83.9438 64.6966C84.5469 64.1075 85.1235 63.4888 85.7391 62.9138C86.1938 62.4497 87.0235 62.5075 87.425 63.0122C87.8047 63.4435 87.7875 64.1544 87.3797 64.5622C86.8078 65.1778 86.1875 65.7513 85.6016 66.3544C86.1547 66.9122 86.7172 67.4591 87.2672 68.02C87.5203 68.27 87.7235 68.5997 87.7 68.97C87.7016 69.6091 87.1016 70.1622 86.4656 70.1107C86.0844 70.106 85.7813 69.8544 85.5281 69.5997C85 69.07 84.475 68.5372 83.9438 68.0122C83.3063 68.6232 82.7172 69.2857 82.0547 69.87C81.411 70.4232 80.3031 69.9685 80.2 69.1357C80.0625 68.5185 80.5578 68.0591 80.9578 67.6778C81.4063 67.2419 81.8453 66.7966 82.286 66.3529C81.6844 65.731 81.0469 65.1466 80.4625 64.5091C80.05 64.0607 80.1094 63.2935 80.5688 62.9013Z" fill="#FFB648"/>
<path d="M91.3719 62.6467C91.6063 62.5889 91.85 62.5936 92.0922 62.5889C96.261 62.6014 100.431 62.5857 104.602 62.5982C105.264 62.5529 105.869 63.1545 105.817 63.8186C105.806 64.4451 105.223 64.9701 104.6 64.9326C100.323 64.9404 96.0469 64.9404 91.7703 64.9326C91.0828 64.9842 90.4578 64.342 90.5438 63.6561C90.5797 63.1936 90.9235 62.7701 91.3719 62.6467Z" fill="#FFB648"/>
<path d="M91.3797 67.8217C93.1766 67.7046 94.9891 67.7999 96.7922 67.7733C97.4578 67.7139 98.0891 68.2936 98.0531 68.9686C98.0563 69.6264 97.4359 70.1671 96.7875 70.1124C95.1203 70.1155 93.4516 70.1186 91.7844 70.1108C91.2016 70.1514 90.6406 69.7155 90.5547 69.1358C90.4453 68.5717 90.8234 67.9655 91.3797 67.8217Z" fill="#FFB648"/>
</g>
<defs>
<clipPath id="clip0_306_5050">
<rect width="80" height="80" fill="white" transform="translate(31 16)"/>
</clipPath>
</defs>
</svg>
