<svg width="112" height="112" viewBox="0 0 112 112" fill="none" xmlns="http://www.w3.org/2000/svg">
<path opacity="0.1" d="M80.0337 16.3093C87.8141 22.7431 94.319 30.1325 94.9568 38.0314C95.5307 45.9303 90.2375 54.2752 88.1967 64.7221C86.2197 75.1691 87.4314 87.7182 82.3295 96.063C77.1638 104.472 65.6846 108.676 54.7154 107.911C43.8101 107.083 33.4788 101.223 23.3387 94.4068C13.2624 87.6545 3.44126 80.0104 0.762757 70.3278C-1.85197 60.709 2.67597 49.0517 7.9692 39.2417C13.2624 29.3681 19.3847 21.278 27.1651 14.9079C35.0093 8.47411 44.5754 3.69653 53.8864 4.01504C63.1974 4.39724 72.2533 9.87553 80.0337 16.3093Z" fill="#00B67A"/>
<g clip-path="url(#clip0_306_5075)">
<path d="M32.4141 16H35.4953C36.2094 16.1109 36.7797 16.7984 36.6484 17.5297C36.5703 18.1047 36.0719 18.6078 35.4828 18.6406C34.5469 18.7125 33.6063 18.6453 32.6672 18.6672C32.6453 19.6094 32.7125 20.5531 32.6391 21.4938C32.5953 22.3141 31.65 22.8828 30.8953 22.5891C30.4141 22.4422 30.1266 21.9906 30 21.5297V18.4453C30.1031 17.1844 31.1578 16.125 32.4141 16Z" fill="#00B67A"/>
<path d="M40.4938 16H43.4766C44 16.0984 44.4953 16.45 44.6188 16.9891C44.8469 17.7484 44.25 18.6234 43.4485 18.6453C42.4547 18.6828 41.4563 18.6984 40.4641 18.6344C39.636 18.5625 39.0985 17.5813 39.4344 16.8313C39.5969 16.3734 40.0438 16.1125 40.4938 16Z" fill="#00B67A"/>
<path d="M48.4141 16H51.4594C51.9844 16.0875 52.4829 16.4344 52.6125 16.9719C52.861 17.7469 52.2391 18.6438 51.4172 18.6484C50.4704 18.6844 49.5188 18.6859 48.5735 18.6484C47.75 18.6391 47.1344 17.7328 47.3891 16.9594C47.5079 16.4609 47.961 16.1625 48.4141 16Z" fill="#00B67A"/>
<path d="M56.4812 16H59.5218C60.175 16.1313 60.7203 16.7156 60.6593 17.4063C60.6375 18.0688 60.0578 18.6516 59.3906 18.6516C58.4468 18.6813 57.4984 18.6891 56.5546 18.6469C55.7546 18.6266 55.1578 17.7594 55.3781 17.0016C55.4922 16.4672 55.9734 16.1219 56.4812 16Z" fill="#00B67A"/>
<path d="M64.4687 16H67.514C67.914 16.1156 68.3296 16.3156 68.5109 16.7172C68.9234 17.4375 68.4609 18.4766 67.6359 18.6188C66.8687 18.7234 66.0906 18.6469 65.3203 18.6734C64.7984 18.6594 64.189 18.7188 63.7796 18.325C63.2593 17.8828 63.189 17.0297 63.6249 16.5031C63.8249 16.2266 64.1593 16.1094 64.4687 16Z" fill="#00B67A"/>
<path d="M72.5094 16H75.4938C75.9735 16.1062 76.4375 16.4031 76.5891 16.8937C76.8829 17.6516 76.3125 18.5969 75.4891 18.6406C74.5422 18.6969 73.5907 18.6766 72.6422 18.6547C71.85 18.675 71.1938 17.8734 71.3579 17.1016C71.4375 16.5156 71.9532 16.1078 72.5094 16Z" fill="#00B67A"/>
<path d="M80.4937 16H83.4781C84.25 16.0984 84.8421 16.8922 84.6218 17.6594C84.4859 18.2547 83.9031 18.6797 83.2953 18.6594C82.3531 18.6688 81.4062 18.7031 80.4656 18.6359C79.6359 18.5641 79.0968 17.5797 79.4359 16.8297C79.5984 16.3719 80.0437 16.1125 80.4937 16Z" fill="#00B67A"/>
<path d="M88.4157 16H91.4594C91.9829 16.0891 92.4797 16.4328 92.6125 16.9688C92.8625 17.7422 92.2407 18.6406 91.4204 18.6484C90.4719 18.6844 89.5204 18.6875 88.5719 18.6484C87.7516 18.6375 87.136 17.7359 87.3891 16.9625C87.5047 16.4625 87.9594 16.1625 88.4157 16Z" fill="#00B67A"/>
<path d="M96.4813 16H99.5204C100.009 16.125 100.483 16.4438 100.609 16.9609C100.869 17.7484 100.225 18.6625 99.3876 18.6516C98.4454 18.6813 97.4985 18.6891 96.5563 18.6469C95.7532 18.6281 95.1532 17.7547 95.3797 16.9938C95.4969 16.4625 95.9766 16.1219 96.4813 16Z" fill="#00B67A"/>
<path d="M104.469 16H107.519C108.797 16.0828 109.88 17.15 110 18.4234V21.4891C109.894 21.9703 109.598 22.4375 109.105 22.5891C108.348 22.8828 107.403 22.3141 107.359 21.4922C107.287 20.5531 107.355 19.6094 107.333 18.6672C106.391 18.6453 105.445 18.7125 104.506 18.6391C103.683 18.5953 103.117 17.65 103.409 16.8937C103.555 16.4125 104.006 16.1266 104.469 16Z" fill="#00B67A"/>
<path d="M38.0062 25.3565C37.9718 24.6283 38.6218 23.9752 39.35 24.0065C41.5531 23.994 43.7578 23.9971 45.9609 24.0049C46.6453 23.9721 47.289 24.5361 47.325 25.2252C47.4015 25.9299 46.8187 26.6283 46.1031 26.6502C44.9218 26.6955 43.7375 26.6518 42.5546 26.6658C45.7203 29.8236 48.8718 32.994 52.0422 36.1471C52.3437 36.4455 52.6453 36.8033 52.6453 37.2518C52.6968 37.9533 52.1062 38.6158 51.4047 38.644C50.9468 38.694 50.5359 38.4393 50.2328 38.1221C47.05 34.9268 43.8593 31.7408 40.6687 28.5518C40.6484 29.7346 40.6968 30.9174 40.65 32.0986C40.6297 32.8174 39.9281 33.4033 39.2218 33.3252C38.5312 33.2846 37.9671 32.6393 38.0046 31.9502C37.9968 29.7533 37.9937 27.5533 38.0062 25.3565Z" fill="#00B67A"/>
<path d="M92.675 25.2252C92.711 24.5361 93.3547 23.969 94.0422 24.0049C96.2438 23.9971 98.4469 23.994 100.648 24.0065C101.383 23.9736 102.03 24.6377 101.995 25.3705C102.003 27.5674 102.005 29.7643 101.994 31.9596C102.033 32.7002 101.367 33.3736 100.625 33.3283C99.9688 33.3221 99.3688 32.7611 99.3485 32.1002C99.3047 30.919 99.3485 29.7346 99.3329 28.5533C96.3266 31.558 93.3204 34.5643 90.3157 37.5705C89.975 37.9002 89.6688 38.2783 89.261 38.5283C88.5938 38.9065 87.6594 38.5471 87.4079 37.8252C87.186 37.294 87.3891 36.6815 87.8047 36.308C91.0204 33.0955 94.2329 29.8815 97.4469 26.6674C96.2625 26.6502 95.0782 26.6971 93.8954 26.6502C93.1797 26.6283 92.5969 25.9299 92.675 25.2252Z" fill="#00B67A"/>
<path d="M30 26.5343C30.0906 25.7937 30.8125 25.1999 31.5625 25.3562C32.2297 25.4531 32.7047 26.1031 32.6625 26.7656C32.6625 27.7015 32.7125 28.6437 32.6281 29.5781C32.5266 30.4078 31.5156 30.914 30.7781 30.5421C30.35 30.3687 30.1187 29.9406 30 29.5171V26.5343Z" fill="#00B67A"/>
<path d="M107.364 26.4623C107.436 25.6342 108.419 25.0983 109.167 25.4342C109.63 25.5983 109.891 26.0498 110 26.5045V29.4623C109.909 30.242 109.109 30.8436 108.338 30.6217C107.745 30.4858 107.322 29.9076 107.342 29.3045C107.33 28.3576 107.297 27.4076 107.364 26.4623Z" fill="#00B67A"/>
<path d="M30 34.5327C30.0922 33.7921 30.8125 33.1984 31.5641 33.3562C32.2125 33.453 32.6906 34.0765 32.6594 34.7234C32.6656 35.6671 32.7078 36.6155 32.6328 37.5562C32.5484 38.3577 31.6063 38.8827 30.8688 38.5796C30.3938 38.4265 30.1188 37.9734 30 37.514V34.5327Z" fill="#00B67A"/>
<path d="M107.652 33.8047C108.073 33.2828 108.905 33.1828 109.442 33.5844C109.755 33.7875 109.892 34.1516 110 34.4938V37.4531C109.912 37.8985 109.68 38.3422 109.244 38.5297C108.544 38.8985 107.573 38.475 107.395 37.7C107.266 36.9344 107.356 36.1531 107.327 35.3813C107.342 34.85 107.267 34.2344 107.652 33.8047Z" fill="#00B67A"/>
<path d="M55.8375 40.131C56.1734 40.0216 56.5296 40.0029 56.8796 39.9966C65.3187 40.0029 73.7578 39.9982 82.1968 39.9998C82.9937 40.0107 83.8546 39.9029 84.5812 40.3123C85.4578 40.7638 86.0218 41.731 85.9984 42.7154C86.0015 51.5701 86.0015 60.4232 85.9984 69.2763C86.064 70.742 84.7484 72.0592 83.2859 71.9982C74.4312 72.0013 65.5781 71.9998 56.725 71.9982C55.2593 72.0654 53.9375 70.7498 54.0015 69.2841C53.9968 60.7966 54.0015 52.3076 54 43.8185C54.0015 43.2951 53.9718 42.7701 54.039 42.2498C54.1703 41.2763 54.9062 40.4279 55.8375 40.131ZM56.6671 42.667C56.6656 51.556 56.6656 60.4435 56.6671 69.3326C65.5562 69.3326 74.4437 69.3326 83.3328 69.3326C83.3343 60.4435 83.3328 51.556 83.3328 42.667C74.4437 42.6654 65.5562 42.667 56.6671 42.667Z" fill="#00B67A"/>
<path d="M30.9969 41.3799C31.75 41.158 32.6188 41.744 32.6437 42.5408C32.6844 43.5362 32.6984 44.5408 32.6344 45.5362C32.5625 46.3627 31.5797 46.9018 30.8313 46.5643C30.3875 46.4127 30.1469 45.983 30 45.5658V42.5252C30.0969 41.9971 30.4516 41.4987 30.9969 41.3799Z" fill="#00B67A"/>
<path d="M107.355 42.5422C107.378 41.7469 108.245 41.1579 108.998 41.3782C109.534 41.4938 109.878 41.9782 110 42.4875V45.5125C109.877 46.0063 109.558 46.4813 109.038 46.6094C108.252 46.8688 107.338 46.2282 107.348 45.3922C107.319 44.4438 107.309 43.4907 107.355 42.5422Z" fill="#00B67A"/>
<path d="M61.0531 45.5062C61.6656 45.2749 62.3328 45.339 62.9734 45.3312C65.7344 45.339 68.4953 45.3265 71.2563 45.3374C71.9813 45.2859 72.6625 45.8984 72.6625 46.6296C72.7047 47.3843 72.0125 48.0437 71.2641 47.9968C68.1766 48.0062 65.0875 47.9968 62 47.9999C61.9922 49.3187 62.0125 50.6374 61.9953 51.9562C62.0281 52.6374 61.4719 53.278 60.7875 53.3234C60.0766 53.4093 59.3656 52.8187 59.3484 52.0968C59.3109 50.7405 59.3391 49.3827 59.3359 48.0265C59.3078 46.9327 60.0297 45.8827 61.0531 45.5062Z" fill="#00B67A"/>
<path d="M31.0109 49.3751C31.7531 49.1657 32.6063 49.7376 32.6422 50.5204C32.6953 51.4642 32.6766 52.4126 32.6547 53.3579C32.6734 54.1501 31.875 54.8048 31.1016 54.6423C30.5328 54.5626 30.1406 54.0751 30 53.5454V50.5064C30.1078 49.9829 30.4656 49.4907 31.0109 49.3751Z" fill="#00B67A"/>
<path d="M107.359 50.5064C107.403 49.6845 108.348 49.1158 109.106 49.4111C109.589 49.5564 109.873 50.0111 110 50.4752V53.508C109.875 54.2252 109.177 54.7939 108.438 54.6439C107.828 54.547 107.338 53.9845 107.345 53.3642C107.323 52.4127 107.305 51.4564 107.359 50.5064Z" fill="#00B67A"/>
<path d="M60.2141 56.0814C60.7656 55.8721 61.4375 56.0892 61.7641 56.5814C62.0641 57.0017 61.9891 57.5471 62.0047 58.033C61.9781 59.1783 62.0344 60.3267 61.9812 61.4705C61.9406 62.1908 61.2109 62.7596 60.5031 62.6533C59.85 62.5877 59.3172 61.9783 59.3406 61.3205C59.325 60.0142 59.3312 58.708 59.3375 57.4017C59.3109 56.8314 59.6672 56.2658 60.2141 56.0814Z" fill="#00B67A"/>
<path d="M30.8297 57.4343C31.5438 57.1156 32.4828 57.5828 32.6172 58.3609C32.725 59.1281 32.6469 59.9078 32.6734 60.6797C32.6562 61.1718 32.7172 61.7328 32.3875 62.1437C31.9844 62.6922 31.1437 62.8297 30.5891 62.4343C30.2625 62.239 30.1156 61.8718 30 61.5281V58.5312C30.0906 58.0625 30.3641 57.6062 30.8297 57.4343Z" fill="#00B67A"/>
<path d="M107.361 58.4921C107.417 57.6531 108.409 57.0906 109.169 57.4359C109.62 57.5921 109.866 58.0281 110 58.4593V61.4874C109.891 62.2499 109.114 62.8327 108.353 62.6249C107.773 62.4952 107.334 61.9437 107.345 61.3468C107.325 60.3968 107.302 59.4421 107.361 58.4921Z" fill="#00B67A"/>
<path d="M30.8391 65.4313C31.5859 65.1016 32.5609 65.636 32.6344 66.461C32.6984 67.4532 32.6828 68.4532 32.6453 69.4469C32.625 70.2453 31.7531 70.8453 30.9953 70.6188C30.4641 70.5016 30.1234 70.0203 30 69.5157V66.5313C30.0922 66.0594 30.3656 65.5985 30.8391 65.4313Z" fill="#00B67A"/>
<path d="M107.364 66.4704C107.43 65.6407 108.411 65.1001 109.161 65.4313C109.627 65.5938 109.891 66.0485 110 66.5063V69.4626C109.909 70.2407 109.112 70.8423 108.342 70.6235C107.744 70.4876 107.319 69.9032 107.341 69.2954C107.331 68.3548 107.297 67.4095 107.364 66.4704Z" fill="#00B67A"/>
<path d="M30 74.5329C30.0922 74.0126 30.4328 73.5157 30.9688 73.3876C31.7422 73.136 32.6422 73.7579 32.6484 74.5798C32.6859 75.5251 32.6844 76.4751 32.6484 77.4204C32.6406 78.2329 31.7594 78.8517 30.9906 78.6173C30.4594 78.4985 30.1203 78.0188 30 77.5142V74.5329Z" fill="#00B67A"/>
<path d="M49.8375 74.2733C50.2375 73.8827 50.6359 73.3624 51.25 73.3546C51.95 73.2999 52.614 73.8905 52.6437 74.5905C52.6937 75.0483 52.439 75.464 52.1203 75.7687C48.9281 78.953 45.7422 82.1437 42.5531 85.3327C43.7859 85.3593 45.0234 85.2827 46.2531 85.3687C47.1328 85.4874 47.6218 86.6062 47.1437 87.3468C46.8797 87.8202 46.3234 88.0312 45.8015 88.0015C43.6562 87.9952 41.5125 88.0077 39.3687 87.9952C38.6312 88.0311 37.9687 87.3733 38.0062 86.6358C37.9953 84.439 37.9969 82.2421 38.0047 80.0468C37.9672 79.3593 38.5312 78.7124 39.2219 78.6749C39.9297 78.5952 40.6344 79.1827 40.65 79.903C40.6953 81.0827 40.65 82.2655 40.6672 83.4468C43.7234 80.389 46.7843 77.3343 49.8375 74.2733Z" fill="#00B67A"/>
<path d="M87.8235 73.6673C88.3547 73.1907 89.2282 73.2798 89.6922 73.8079C92.9094 77.0173 96.1219 80.2314 99.3344 83.4454C99.3469 82.2657 99.3063 81.0845 99.3485 79.9048C99.3657 79.186 100.064 78.5954 100.773 78.6751C101.469 78.7111 102.033 79.3626 101.995 80.0548C102.002 82.2501 102.006 84.4454 101.994 86.6407C102.027 87.3736 101.372 88.0267 100.639 87.9939C98.4407 88.0048 96.2407 88.0032 94.0438 87.9954C93.3563 88.0298 92.711 87.4642 92.675 86.7736C92.5954 86.0704 93.1797 85.3704 93.8938 85.3501C95.0766 85.3032 96.2625 85.3501 97.4485 85.3314C94.2125 82.0845 90.961 78.8548 87.7313 75.6048C87.1938 75.0876 87.2422 74.1298 87.8235 73.6673Z" fill="#00B67A"/>
<path d="M107.352 74.5779C107.356 73.7607 108.248 73.142 109.02 73.3842C109.548 73.506 109.881 73.9904 110 74.4935V77.4545C109.913 77.9873 109.558 78.4888 109.013 78.617C108.244 78.8513 107.359 78.2373 107.352 77.4248C107.313 76.4779 107.314 75.5263 107.352 74.5779Z" fill="#00B67A"/>
<path d="M30.4859 81.639C31.0141 81.1827 31.8938 81.2546 32.3391 81.7952C32.725 82.2124 32.6578 82.8218 32.6734 83.3468C32.6453 84.1171 32.7281 84.8952 32.6125 85.6608C32.4562 86.4702 31.4375 86.914 30.725 86.5155C30.3344 86.3421 30.1406 85.9405 30 85.564V82.5265C30.0922 82.1999 30.2016 81.8483 30.4859 81.639Z" fill="#00B67A"/>
<path d="M107.355 82.5453C107.375 81.7484 108.244 81.1578 108.998 81.3781C109.534 81.4937 109.88 81.9781 110 82.4874V85.5109C109.877 86.0062 109.558 86.4812 109.037 86.6093C108.255 86.8671 107.344 86.2328 107.35 85.4015C107.317 84.45 107.309 83.4953 107.355 82.5453Z" fill="#00B67A"/>
<path d="M30.8953 89.4095C31.6516 89.1173 32.5953 89.6829 32.6391 90.5063C32.7125 91.4454 32.6453 92.3907 32.6672 93.3329C33.6078 93.3548 34.5516 93.2876 35.4922 93.3595C36.3156 93.4016 36.8844 94.3516 36.5875 95.1079C36.4391 95.5891 35.9859 95.8735 35.5234 96.0001H32.4844C31.1953 95.9173 30.1016 94.8313 30 93.5454V90.5063C30.1062 90.0251 30.4031 89.5595 30.8953 89.4095Z" fill="#00B67A"/>
<path d="M107.359 90.5076C107.403 89.6858 108.345 89.117 109.102 89.4092C109.586 89.5545 109.873 90.0076 110 90.4733V93.5076C109.92 94.8014 108.833 95.8967 107.544 95.9998H104.512C104.072 95.8951 103.631 95.6561 103.455 95.2154C103.097 94.492 103.57 93.5045 104.378 93.3779C105.358 93.2686 106.348 93.3623 107.333 93.3326C107.355 92.3904 107.287 91.4467 107.359 90.5076Z" fill="#00B67A"/>
<path d="M39.3891 95.0361C39.1297 94.2502 39.7719 93.3377 40.6078 93.3486C41.5547 93.3189 42.5063 93.3111 43.4531 93.3549C44.2516 93.3768 44.8469 94.2502 44.6188 95.0065C44.5 95.5377 44.0172 95.8768 43.5141 96.0002H40.4844C39.9906 95.8752 39.5156 95.5564 39.3891 95.0361Z" fill="#00B67A"/>
<path d="M47.3843 95.0156C47.1437 94.2438 47.764 93.3547 48.5812 93.35C49.5265 93.3141 50.4749 93.3141 51.4203 93.3516C52.2374 93.3563 52.8546 94.2469 52.6156 95.0172C52.4921 95.5469 52.0093 95.8813 51.5046 96H48.55C48.0171 95.9141 47.5109 95.5625 47.3843 95.0156Z" fill="#00B67A"/>
<path d="M55.461 95.2296C55.086 94.4952 55.5797 93.4796 56.4094 93.3733C57.1329 93.2827 57.8657 93.3499 58.5922 93.3265C59.1266 93.3437 59.7438 93.2624 60.1813 93.6405C60.6891 94.0421 60.8126 94.8312 60.4594 95.3733C60.2735 95.7108 59.9001 95.8624 59.5626 95.9999H56.5282C56.086 95.903 55.6422 95.6687 55.461 95.2296Z" fill="#00B67A"/>
<path d="M63.3734 94.353C63.5015 93.7655 64.0656 93.3296 64.6656 93.3437C65.6093 93.3265 66.5578 93.3015 67.5 93.3593C68.3468 93.4093 68.9109 94.4124 68.5609 95.1733C68.4015 95.6202 67.9687 95.8655 67.5406 95.9999H64.5125C63.7484 95.8921 63.1656 95.114 63.3734 94.353Z" fill="#00B67A"/>
<path d="M71.4344 95.1689C71.0907 94.4096 71.65 93.4143 72.4938 93.3611C73.4922 93.308 74.4985 93.3111 75.4969 93.3596C76.3141 93.4064 76.8797 94.3455 76.5907 95.0986C76.4438 95.5846 75.9891 95.8752 75.5235 96.0002H72.4938C72.0454 95.883 71.5969 95.6283 71.4344 95.1689Z" fill="#00B67A"/>
<path d="M79.3859 94.3063C79.5375 93.7032 80.1437 93.3048 80.7562 93.3376C81.6937 93.3376 82.6375 93.2891 83.5734 93.3704C84.3609 93.4641 84.8719 94.3829 84.5859 95.1126C84.4359 95.5938 83.9797 95.8782 83.5141 96.0001H80.4844C79.7172 95.8688 79.1469 95.0704 79.3859 94.3063Z" fill="#00B67A"/>
<path d="M87.4265 95.1467C87.0843 94.3592 87.7046 93.3576 88.5734 93.3514C89.5234 93.3139 90.4796 93.3139 91.4328 93.3514C92.2453 93.3623 92.8562 94.2545 92.614 95.0217C92.489 95.5498 92.0078 95.8826 91.5046 95.9998H88.55C88.0656 95.9139 87.5921 95.6326 87.4265 95.1467Z" fill="#00B67A"/>
<path d="M95.3797 95.0046C95.1532 94.2499 95.7469 93.3749 96.5469 93.3546C97.5407 93.3171 98.5422 93.3015 99.536 93.364C100.361 93.4343 100.9 94.414 100.566 95.1624C100.414 95.6093 99.9813 95.8515 99.5626 95.9999H96.5297C96.0016 95.9031 95.5016 95.5499 95.3797 95.0046Z" fill="#00B67A"/>
</g>
<defs>
<clipPath id="clip0_306_5075">
<rect width="80" height="80" fill="white" transform="translate(30 16)"/>
</clipPath>
</defs>
</svg>
