<svg width="112" height="112" viewBox="0 0 112 112" fill="none" xmlns="http://www.w3.org/2000/svg">
<path opacity="0.1" d="M81.0337 17.0358C88.8141 23.3266 95.319 30.5517 95.9568 38.2751C96.5307 45.9985 91.2375 54.1579 89.1967 64.3728C87.2197 74.5876 88.4314 86.8578 83.3295 95.0172C78.1638 103.239 66.6846 107.35 55.7154 106.602C44.8101 105.793 34.4788 100.062 24.3387 93.3978C14.2624 86.7955 4.44126 79.3213 1.76276 69.8539C-0.851972 60.4488 3.67597 49.0505 8.9692 39.4586C14.2624 29.8043 20.3847 21.8941 28.1651 15.6655C36.0093 9.37469 45.5754 4.70328 54.8864 5.0147C64.1974 5.38842 73.2533 10.745 81.0337 17.0358Z" fill="#FF007D"/>
<path d="M51.1562 23.839C62.4031 22.3952 73.6499 20.9453 84.8968 19.5046C87.3734 19.1594 89.8781 20.9988 90.2437 23.4158C90.9187 28.2603 91.5484 33.1141 92.2093 37.9617C94.2312 34.9367 96.2546 31.9117 98.2796 28.8867C99.1203 27.6401 100.522 26.7799 102.036 26.5813C104.016 26.2895 106.108 27.1909 107.233 28.8073C108.353 30.3595 108.514 32.5152 107.619 34.2049C107.227 34.9245 106.741 35.5891 106.302 36.2812C102.295 42.1967 98.3578 48.1581 94.3906 54.0996C95.3937 61.5521 96.389 69.0046 97.3874 76.4571C97.6374 78.0552 96.9874 79.7495 95.7187 80.7869C95.0031 81.3827 94.1078 81.7601 93.1781 81.8762C91.2234 82.1558 89.2531 82.3376 87.3078 82.6645C77.5859 85.5199 67.8671 88.3891 58.1453 91.246C56.9656 91.5485 55.8234 92.0558 54.5937 92.126C52.4187 92.2406 50.3015 90.7464 49.7218 88.6946C44.4921 71.7058 39.2671 54.7153 34.0374 37.7249C33.6999 36.6708 33.7249 35.5035 34.1578 34.4799C34.6906 33.163 35.8609 32.118 37.2484 31.7116C40.4734 30.7567 43.7015 29.8126 46.9281 28.8623C46.8968 27.7959 47.1593 26.7066 47.8015 25.8327C48.5687 24.7449 49.8171 24.0024 51.1562 23.839ZM51.4749 26.1627C50.5187 26.2696 49.6671 26.977 49.4218 27.8876C49.2218 28.5445 49.4046 29.2274 49.4812 29.8859C51.8015 47.159 54.1234 64.4305 56.4437 81.7035C56.5468 83.0342 57.9078 84.0976 59.2609 83.8638C70.464 82.4277 81.6703 80.9992 92.8718 79.5478C94.2078 79.421 95.2234 78.0903 94.9921 76.8024C94.1093 70.2467 93.2218 63.6926 92.3359 57.1369C90.789 59.4545 89.2437 61.7737 87.6968 64.0913C87.3968 64.539 87.1296 65.0248 86.7031 65.3716C84.9062 66.881 83.1187 68.4012 81.3281 69.9167C80.7859 70.372 80.2624 70.893 79.5671 71.1145C78.4484 71.5163 77.1218 71.2046 76.2874 70.3812C75.4515 69.5974 75.1312 68.3523 75.4656 67.2721C75.7687 66.2592 76.1031 65.2555 76.4156 64.2471C71.1671 64.9148 65.9203 65.5901 60.6734 66.2592C60.1328 66.3585 59.5078 66.1798 59.2406 65.6787C58.8281 65.0233 59.2796 64.0592 60.0656 63.9599C65.7953 63.1899 71.5328 62.4612 77.264 61.6851C77.6859 60.5713 77.8234 59.3246 78.5781 58.3576C79.8359 56.4799 81.0874 54.5977 82.3421 52.717C79.1312 53.1448 75.9203 53.571 72.7093 54.0065C72.2906 54.0569 71.8234 54.1134 71.4546 53.8674C70.9124 53.5481 70.7312 52.7842 71.0765 52.2648C71.2843 51.9073 71.6937 51.7285 72.0984 51.6949C76.089 51.1831 80.0828 50.6774 84.0718 50.1412C86.1156 47.0902 88.1546 44.0362 90.1984 40.9837C89.4187 35.3003 88.6484 29.614 87.8578 23.9321C87.7046 22.5846 86.2781 21.6176 84.9296 21.8696C73.7781 23.3012 62.6265 24.7281 51.4749 26.1627ZM101.302 29.2473C100.595 29.6048 100.177 30.2908 99.7999 30.9462C101.472 32.0233 103.144 33.1003 104.816 34.1759C105.189 33.6183 105.619 33.0652 105.744 32.3945C105.978 31.2991 105.508 30.0983 104.577 29.4444C103.65 28.7569 102.308 28.6774 101.302 29.2473ZM37.9968 33.9315C37.0484 34.1835 36.3109 35.033 36.2156 35.9909C36.1312 36.6387 36.4062 37.2528 36.5828 37.8624C41.6437 54.2998 46.7031 70.7371 51.764 87.1745C51.9656 87.7994 52.089 88.493 52.5718 88.9819C53.1921 89.6526 54.2062 89.9413 55.0937 89.674C60.9546 87.9598 66.8109 86.2303 72.6687 84.507C68.2062 85.0692 63.7484 85.6544 59.2859 86.2089C56.8281 86.4702 54.4124 84.5895 54.0906 82.2001C51.7968 65.2051 49.5265 48.2085 47.239 31.2135C44.1578 32.118 41.0781 33.0255 37.9968 33.9315ZM97.4562 34.402C99.1374 35.4776 100.822 36.5485 102.503 37.6241C102.836 37.1306 103.166 36.6356 103.495 36.1406C101.816 35.062 100.131 33.991 98.4499 32.9185C98.1171 33.412 97.7859 33.907 97.4562 34.402ZM80.7453 59.424C82.4265 60.4995 84.1093 61.5751 85.7921 62.6476C90.9249 54.9628 96.0593 47.2781 101.191 39.5903C99.5156 38.5056 97.8281 37.4392 96.1437 36.3683C91.0093 44.053 85.8796 51.7408 80.7453 59.424ZM78.9312 64.1433C80.1531 64.4885 81.2531 65.1944 82.0703 66.1477C82.7531 65.5671 83.4359 64.9851 84.1187 64.4015C82.6578 63.4634 81.1968 62.5253 79.7281 61.5965C79.4609 62.4444 79.1953 63.2938 78.9312 64.1433ZM78.2312 66.383C78.0624 66.9467 77.8343 67.4937 77.714 68.0696C77.6062 68.6426 78.3296 69.1345 78.8421 68.8503C79.3593 68.5173 79.7859 68.0681 80.264 67.6846C79.7343 67.0644 79.0234 66.6152 78.2312 66.383Z" fill="#FF007D"/>
<path d="M81.8203 28.974C82.2766 28.9206 82.7922 28.806 83.2 29.0886C83.8141 29.4537 83.9328 30.3781 83.425 30.8792C83.0594 31.2856 82.4625 31.2703 81.9578 31.3497C76.0656 32.0983 70.1734 32.8607 64.2812 33.6169C63.7344 33.6796 63.1016 33.8446 62.6266 33.4779C62.0672 33.0944 61.9812 32.2312 62.4562 31.7515C62.8016 31.3528 63.375 31.3619 63.8609 31.2871C69.8484 30.5201 75.8344 29.7517 81.8203 28.974Z" fill="#FF007D"/>
<path d="M82.3249 39.61C82.9218 39.5458 83.5171 39.4068 84.1218 39.4221C84.8671 39.4923 85.3734 40.3372 85.0843 41.011C84.9031 41.5273 84.3453 41.7764 83.8218 41.8085C75.1703 42.913 66.5218 44.0421 57.8703 45.1497C57.2531 45.2826 56.5546 44.945 56.3843 44.3323C56.1593 43.6632 56.6921 42.8993 57.4062 42.8473C65.7109 41.7611 74.0187 40.6901 82.3249 39.61Z" fill="#FF007D"/>
<path d="M63.2077 52.81C63.8202 52.7153 64.5921 52.5671 65.0327 53.1217C65.6593 53.7771 65.1968 54.9764 64.2827 55.0589C62.7483 55.2774 61.2062 55.4408 59.6718 55.6578C59.1843 55.7082 58.6312 55.8258 58.1999 55.5249C57.6155 55.1628 57.4937 54.2904 57.9593 53.7908C58.203 53.4853 58.6046 53.3936 58.978 53.3524C60.389 53.1751 61.7983 52.9964 63.2077 52.81Z" fill="#FF007D"/>
<path d="M70.5843 73.3254C71.175 73.1863 71.8687 73.4185 72.1093 73.996C72.4422 74.6835 71.925 75.5727 71.1484 75.6384C68.1843 76.0295 65.214 76.3809 62.2484 76.7629C61.85 76.8163 61.4031 76.827 61.0734 76.5658C60.5156 76.1884 60.4297 75.3298 60.9031 74.8531C61.1968 74.5033 61.6843 74.4681 62.1109 74.4116C64.9375 74.0617 67.7609 73.6935 70.5843 73.3254Z" fill="#FF007D"/>
</svg>
