<svg width="112" height="112" viewBox="0 0 112 112" fill="none" xmlns="http://www.w3.org/2000/svg">
<path opacity="0.1" d="M81.0337 16.3093C88.8141 22.7431 95.319 30.1325 95.9568 38.0314C96.5307 45.9303 91.2375 54.2752 89.1967 64.7221C87.2197 75.1691 88.4314 87.7182 83.3295 96.063C78.1638 104.472 66.6846 108.676 55.7154 107.911C44.8101 107.083 34.4788 101.223 24.3387 94.4068C14.2624 87.6545 4.44126 80.0104 1.76276 70.3278C-0.851972 60.709 3.67597 49.0517 8.9692 39.2417C14.2624 29.3681 20.3847 21.278 28.1651 14.9079C36.0093 8.47411 45.5754 3.69653 54.8864 4.01504C64.1974 4.39724 73.2533 9.87553 81.0337 16.3093Z" fill="#00A0AA"/>
<g clip-path="url(#clip0_306_5149)">
<path d="M60.8453 23.8311C64.3641 20.8374 68.8844 19.053 73.4984 18.8233C77.8781 18.5795 82.3234 19.7217 86.0297 22.0717C86.4781 22.378 87.0672 22.6358 87.2172 23.2077C87.4078 23.8405 86.9547 24.5608 86.3031 24.6624C85.7641 24.7827 85.3156 24.3967 84.8906 24.1342C80.2594 21.1045 74.2703 20.342 69 21.9905C64.3172 23.4155 60.2641 26.7545 57.9484 31.0639C57.5484 31.8233 57.0906 32.5983 56.3484 33.0717C55.4297 33.7092 54.2781 33.842 53.1891 33.8139C50.5469 33.7561 47.8953 34.542 45.7219 36.0452C43.5406 37.5327 41.8516 39.7233 40.9672 42.2092C40.6906 42.9983 40.2406 43.7389 39.5781 44.2608C38.7953 44.9311 37.7406 45.1077 36.8812 45.6483C34.8922 46.8186 33.5391 48.992 33.3719 51.2936C33.1938 53.2342 33.8797 55.2202 35.1875 56.6608C36.6359 58.303 38.8187 59.2405 41.0031 59.2061C51.8891 59.2108 62.7734 59.2077 73.6578 59.2077C74.2297 59.2155 74.8047 59.167 75.3719 59.2452C75.9469 59.3467 76.35 59.9545 76.2641 60.5233C76.2062 61.0608 75.7328 61.5124 75.1906 61.5342C74.3125 61.5858 73.4313 61.5342 72.5531 61.553C72.5516 68.8249 72.55 76.0952 72.5531 83.3671C73.9141 83.7342 75.1344 84.6374 75.7844 85.8999C76.8516 87.8389 76.3875 90.4499 74.7266 91.9077C73.0953 93.4467 70.3984 93.6358 68.5703 92.3342C66.7234 91.1171 65.9062 88.5983 66.6937 86.5295C67.2406 84.967 68.6188 83.7874 70.2062 83.3671C70.2094 76.0952 70.2078 68.8233 70.2062 61.5514C66.6813 61.5514 63.1562 61.5514 59.6313 61.553C59.6313 66.7874 59.6281 72.0217 59.6328 77.2561C59.6234 77.7577 59.6812 78.2717 59.5547 78.7639C59.3906 79.2639 58.8641 79.5608 58.3516 79.5295C55.6625 79.5358 52.975 79.5264 50.2859 79.5327C49.8047 81.028 48.5109 82.253 46.9375 82.4952C45.1422 82.8311 43.2203 81.828 42.4547 80.1733C41.6516 78.5655 42.0562 76.4702 43.4 75.2764C44.7 74.0436 46.8141 73.8124 48.3469 74.7421C49.2828 75.2686 49.9328 76.1858 50.2812 77.1874C52.6156 77.1874 54.9516 77.1889 57.2859 77.1858C57.2875 71.9749 57.2875 66.7639 57.2859 61.553C53.7562 61.5514 50.2266 61.5514 46.6953 61.553C46.6844 63.3483 46.7109 65.1452 46.6859 66.9405C46.7125 67.5686 46.1641 68.1311 45.5359 68.117C44.0047 68.1436 42.4734 68.1124 40.9422 68.128C40.4531 69.4217 39.2703 70.4483 37.8719 70.5889C36.1828 70.8155 34.4594 69.6842 33.9688 68.0592C33.5187 66.6874 33.9812 65.0795 35.0969 64.1624C36.2016 63.1999 37.9094 63.0155 39.1875 63.7389C40.0125 64.1624 40.5891 64.9358 40.9391 65.778C42.0766 65.7827 43.2125 65.7811 44.35 65.7795C44.35 64.3702 44.3516 62.9624 44.35 61.553C43.0797 61.5436 41.8094 61.5686 40.5391 61.5405C38 61.4639 35.5031 60.3858 33.7344 58.5592C32.0984 56.9014 31.1016 54.6358 31 52.3077V51.4795C31.1344 48.2608 32.9734 45.1717 35.7812 43.5764C36.475 43.1358 37.2891 42.942 37.9906 42.5217C38.6094 42.1249 38.7547 41.3608 39.0219 40.7327C39.8703 38.6827 41.1891 36.8295 42.8344 35.3436C45.5938 32.8436 49.3078 31.4186 53.0328 31.4702C53.6734 31.4577 54.3656 31.517 54.9422 31.1827C55.3109 30.9811 55.525 30.6014 55.7203 30.2452C56.9906 27.8014 58.7453 25.6124 60.8453 23.8311ZM36.975 65.7342C36.0875 66.0389 35.8563 67.3358 36.5813 67.9311C37.275 68.617 38.5875 68.178 38.7422 67.2202C38.9906 66.2499 37.8922 65.317 36.975 65.7342ZM45.9141 76.5436C45.2719 76.6514 44.7109 77.128 44.4953 77.742C44.0984 78.7499 44.7937 79.9811 45.8578 80.1686C46.9047 80.4217 48.0266 79.5749 48.075 78.5014C48.2047 77.3467 47.0484 76.3046 45.9141 76.5436ZM70.4328 85.7608C69.4 86.1436 68.6813 87.2264 68.7422 88.3296C68.7609 89.792 70.1781 91.0327 71.6313 90.8499C73.1266 90.7483 74.2984 89.1967 73.9703 87.728C73.7219 86.1639 71.8953 85.1405 70.4328 85.7608Z" fill="#00A0AA"/>
<path d="M89.264 26.4512C89.6922 25.9168 90.5906 25.9028 91.0219 26.4418C91.9656 27.5153 92.7312 28.7293 93.4453 29.9637C93.8203 30.645 94.6094 30.9918 95.3687 30.9231C99.7719 30.7872 104.166 32.709 107.086 35.9997C109.498 38.6668 110.894 42.2059 111 45.7981V46.7622C110.873 49.7559 109.853 52.7059 108.067 55.1153C105.778 58.2512 102.286 60.459 98.4875 61.2387C98.4828 62.7528 98.4844 64.2668 98.4875 65.7793C99.6219 65.7809 100.758 65.7809 101.894 65.7809C102.375 64.5075 103.528 63.4903 104.898 63.3278C106.542 63.0793 108.248 64.1168 108.805 65.6778C109.336 67.0528 108.922 68.7184 107.809 69.684C106.714 70.6856 104.986 70.9075 103.683 70.1887C102.842 69.7637 102.247 68.984 101.892 68.1262C100.342 68.109 98.7922 68.1481 97.2437 68.1122C96.6375 68.1059 96.1265 67.5481 96.15 66.9465C96.125 65.1418 96.1515 63.3356 96.1406 61.5293C92.5844 61.5793 89.0297 61.5372 85.4734 61.5528C85.4719 66.7637 85.4719 71.9747 85.4734 77.1856C87.8078 77.1887 90.1437 77.1872 92.4781 77.1856C92.9812 75.5762 94.4578 74.3028 96.1594 74.184C97.9672 73.9997 99.7953 75.1418 100.43 76.8418C101.089 78.4637 100.578 80.4575 99.225 81.5653C97.9156 82.7028 95.8859 82.8762 94.4031 81.9778C93.4703 81.4481 92.8219 80.5325 92.475 79.5325C89.7406 79.5231 87.0062 79.545 84.2734 79.5231C83.5765 79.5403 83.0515 78.859 83.1281 78.1903C83.1265 72.6434 83.1312 67.0981 83.1281 61.5528C82.2297 61.5309 81.3312 61.5918 80.4359 61.5278C79.6969 61.4793 79.1922 60.6215 79.4844 59.9481C79.6609 59.4622 80.1734 59.1747 80.6797 59.209C85.6844 59.1981 90.6906 59.2247 95.6953 59.1965C100.77 59.1309 105.639 55.8856 107.622 51.209C108.881 48.3247 108.977 44.9747 107.952 42.0043C107.023 39.2887 105.159 36.9075 102.75 35.3481C100.536 33.8887 97.8609 33.17 95.2156 33.2637C93.6625 33.3153 92.139 32.4434 91.3859 31.0887C90.7812 30.0059 90.0844 28.9793 89.3015 28.0168C88.9125 27.5903 88.8656 26.8887 89.264 26.4512ZM104.814 65.7684C103.933 66.1403 103.808 67.484 104.605 68.0153C105.362 68.6231 106.619 68.0637 106.683 67.0981C106.837 66.12 105.687 65.3012 104.814 65.7684ZM96.075 76.5715C95.3344 76.7481 94.7469 77.4247 94.6875 78.1872C94.5562 79.2153 95.4453 80.2106 96.4797 80.2059C97.5515 80.2668 98.5062 79.2356 98.3594 78.1715C98.2812 77.0903 97.1187 76.2747 96.075 76.5715Z" fill="#00A0AA"/>
</g>
<defs>
<clipPath id="clip0_306_5149">
<rect width="80" height="80" fill="white" transform="translate(31 16)"/>
</clipPath>
</defs>
</svg>
