<svg width="48" height="48" viewBox="0 0 48 48" fill="none" xmlns="http://www.w3.org/2000/svg">
<g id="icons8-quote_left 2">
<path id="Vector" d="M31.5176 8.99216C31.7028 8.99694 31.8856 9.03601 32.0566 9.10739C32.0566 9.10739 34.9316 10.2794 37.6426 13.4648C40.3536 16.6502 43 21.9274 43 30C43.0001 30.0732 42.9949 30.1463 42.9844 30.2187C43.0221 31.3571 42.8306 32.4914 42.4213 33.5543C42.012 34.6172 41.3933 35.5871 40.6019 36.4062C39.8105 37.2253 38.8625 37.877 37.8143 38.3226C36.7661 38.7681 35.639 38.9985 34.5 39C32.2457 39 30.0836 38.1044 28.4896 36.5104C26.8955 34.9163 26 32.7543 26 30.5C26 28.2456 26.8955 26.0836 28.4896 24.4896C30.0836 22.8955 32.2457 22 34.5 22C36.2095 22.0004 37.8792 22.5164 39.291 23.4804C38.4223 19.7771 36.8778 17.1966 35.3574 15.4101C33.0684 12.7205 30.9434 11.8925 30.9434 11.8925C30.6131 11.7659 30.3383 11.5267 30.1673 11.2171C29.9963 10.9075 29.9402 10.5474 30.0089 10.2005C30.0776 9.85357 30.2666 9.54205 30.5427 9.32096C30.8187 9.09986 31.164 8.98341 31.5176 8.99216ZM10.5176 8.99216C10.7028 8.99694 10.8856 9.03601 11.0566 9.10739C11.0566 9.10739 13.9316 10.2794 16.6426 13.4648C19.3536 16.6502 22 21.9274 22 30C22.0001 30.0732 21.9949 30.1463 21.9844 30.2187C22.0221 31.3571 21.8306 32.4914 21.4213 33.5543C21.012 34.6172 20.3933 35.5871 19.6019 36.4062C18.8105 37.2253 17.8625 37.877 16.8143 38.3226C15.7661 38.7681 14.639 38.9985 13.5 39C11.2457 39 9.08365 38.1044 7.48959 36.5104C5.89553 34.9163 5 32.7543 5 30.5C5 28.2456 5.89553 26.0836 7.48959 24.4896C9.08365 22.8955 11.2457 22 13.5 22C15.2095 22.0004 16.8792 22.5164 18.291 23.4804C17.4223 19.7771 15.8778 17.1966 14.3574 15.4101C12.0684 12.7205 9.94336 11.8925 9.94336 11.8925C9.61313 11.7659 9.33826 11.5267 9.16728 11.2171C8.9963 10.9075 8.94019 10.5474 9.00888 10.2005C9.07757 9.85357 9.26663 9.54205 9.54268 9.32096C9.81872 9.09986 10.164 8.98341 10.5176 8.99216Z" fill="#EEEEEE"/>
</g>
</svg>
